<svg xmlns="http://www.w3.org/2000/svg" width="24" height="24" viewBox="0 0 24 24" fill="none">
  <path d="M5 21V8.2C5 7.54 5.54 7 6.2 7H10.6V4.2C10.6 3.54 11.14 3 11.8 3H17.8C18.46 3 19 3.54 19 4.2V21" stroke="#2c4f54" stroke-width="2.1" stroke-linecap="round" stroke-linejoin="round"/>
  <path d="M3.8 21H20.2" stroke="#2c4f54" stroke-width="2.1" stroke-linecap="round"/>
  <path d="M8 10.2H8.8" stroke="#2c4f54" stroke-width="2.1" stroke-linecap="round"/>
  <path d="M8 13.8H8.8" stroke="#2c4f54" stroke-width="2.1" stroke-linecap="round"/>
  <path d="M13.4 7.8H14.2" stroke="#2c4f54" stroke-width="2.1" stroke-linecap="round"/>
  <path d="M16 7.8H16.8" stroke="#2c4f54" stroke-width="2.1" stroke-linecap="round"/>
  <path d="M13.4 11.4H14.2" stroke="#2c4f54" stroke-width="2.1" stroke-linecap="round"/>
  <path d="M16 11.4H16.8" stroke="#2c4f54" stroke-width="2.1" stroke-linecap="round"/>
  <path d="M13 21V17.2C13 16.54 13.54 16 14.2 16H15.4C16.06 16 16.6 16.54 16.6 17.2V21" stroke="#2c4f54" stroke-width="2.1" stroke-linecap="round" stroke-linejoin="round"/>
</svg>
